<svg width="100" height="100" viewBox="0 0 100 100" fill="none" xmlns="http://www.w3.org/2000/svg">
<path fill-rule="evenodd" clip-rule="evenodd" d="M60.789 6.77455C60.7376 6.6774 60.673 6.58678 60.5968 6.50757C54.8136 0.497475 45.1864 0.497476 39.4032 6.50757C39.327 6.58678 39.2624 6.6774 39.211 6.77455V6.77455C39.1595 6.8717 39.1214 6.97532 39.0975 7.08262L36.6781 17.97H0.625C0.279822 17.97 0 18.2498 0 18.595V18.595C0 18.9402 0.279823 19.22 0.625001 19.22H36.6915L39.5841 30.7905H0.625C0.279822 30.7905 0 31.0703 0 31.4155V31.4155C0 31.7607 0.279822 32.0405 0.625 32.0405H39.8966L42.9516 44.2602L33.9993 96.6949C33.9683 96.8764 34.0189 97.0624 34.1377 97.2031C34.2565 97.3439 34.4312 97.4251 34.6154 97.4251H65.3846C65.5688 97.4251 65.7435 97.3439 65.8623 97.2031C65.981 97.0624 66.0317 96.8764 66.0007 96.6949L57.0484 44.2602L60.1034 32.0405H99.375C99.7202 32.0405 100 31.7607 100 31.4155V31.4155C100 31.0703 99.7202 30.7905 99.375 30.7905H60.4159L63.3085 19.22H99.375C99.7202 19.22 100 18.9402 100 18.595V18.595C100 18.2498 99.7202 17.97 99.375 17.97H63.3219L60.9025 7.08262C60.8786 6.97532 60.8405 6.8717 60.789 6.77455V6.77455ZM59.5484 7.22316C54.2913 1.92561 45.7087 1.92561 40.4516 7.22315L47.8288 30.5842C47.9826 31.0713 48.0609 31.5791 48.0609 32.0899V43.611H51.9391V32.0899C51.9391 31.5791 52.0174 31.0713 52.1712 30.5842L59.5484 7.22316ZM53.1891 43.611V32.2825C53.1891 31.7718 53.2674 31.264 53.4212 30.7769L60.1513 9.46477L62.1784 18.5865L55.9223 43.611H53.1891ZM37.8216 18.5865L39.8487 9.46477L46.5788 30.7769C46.7326 31.264 46.8109 31.7718 46.8109 32.2825V43.611H44.0777L37.8216 18.5865ZM55.8535 44.861H55.8829L64.6439 96.1751H63.4285L55.8535 44.861ZM54.59 44.861H54.552L60.8098 96.1751H62.1649L54.59 44.861ZM55.7163 96.1751L53.1711 54.4344L57.0703 96.1751H55.7163ZM59.5506 96.1751H58.3257L54.3162 53.2535L59.5506 96.1751ZM54.4639 96.1751L51.8343 53.0496L53.2333 96.1751H54.4639ZM51.9826 96.1751L50.625 54.3236V96.1751H51.9826ZM48.1657 53.0496L46.7667 96.1751H45.5361L48.1657 53.0496ZM48.0174 96.1751L49.375 54.3236V96.1751H48.0174ZM45.5276 54.5345L41.8002 96.1751H40.4494L45.5276 54.5345ZM43.0552 96.1751L46.9088 53.1242L44.2837 96.1751H43.0552ZM39.1902 96.1751L45.448 44.861H45.4396L37.874 96.1751H39.1902ZM36.6104 96.1751L44.1761 44.861H44.1171L35.3561 96.1751H36.6104Z" fill="white"/>
</svg>
